<svg width="16" height="16" viewBox="0 0 16 16" fill="none" xmlns="http://www.w3.org/2000/svg">
<path d="M8.00016 7.66665C7.55814 7.66665 7.13421 7.49105 6.82165 7.17849C6.50909 6.86593 6.3335 6.44201 6.3335 5.99998C6.3335 5.55795 6.50909 5.13403 6.82165 4.82147C7.13421 4.50891 7.55814 4.33331 8.00016 4.33331C8.44219 4.33331 8.86611 4.50891 9.17867 4.82147C9.49123 5.13403 9.66683 5.55795 9.66683 5.99998C9.66683 6.21885 9.62372 6.43558 9.53996 6.63779C9.4562 6.83999 9.33344 7.02373 9.17867 7.17849C9.02391 7.33325 8.84018 7.45602 8.63797 7.53978C8.43576 7.62354 8.21903 7.66665 8.00016 7.66665ZM8.00016 1.33331C6.76249 1.33331 5.5755 1.82498 4.70033 2.70015C3.82516 3.57532 3.3335 4.7623 3.3335 5.99998C3.3335 9.49998 8.00016 14.6666 8.00016 14.6666C8.00016 14.6666 12.6668 9.49998 12.6668 5.99998C12.6668 4.7623 12.1752 3.57532 11.3 2.70015C10.4248 1.82498 9.23784 1.33331 8.00016 1.33331Z" fill="#777984"/>
</svg>
