<svg width="15" height="16" viewBox="0 0 15 16" fill="none" xmlns="http://www.w3.org/2000/svg">
<path fill-rule="evenodd" clip-rule="evenodd" d="M4.93161 5.93185C4.75587 6.10759 4.75587 6.39251 4.93161 6.56825C5.10735 6.74398 5.39227 6.74398 5.56801 6.56825L7.49981 4.63644L9.43161 6.56825C9.60735 6.74398 9.89227 6.74398 10.068 6.56825C10.2437 6.39251 10.2437 6.10759 10.068 5.93185L7.81801 3.68185C7.73361 3.59746 7.61915 3.55005 7.49981 3.55005C7.38046 3.55005 7.266 3.59746 7.18161 3.68185L4.93161 5.93185ZM10.068 10.0682C10.2437 9.89251 10.2437 9.60759 10.068 9.43185C9.89227 9.25612 9.60735 9.25612 9.43161 9.43185L7.49981 11.3637L5.56801 9.43185C5.39227 9.25612 5.10735 9.25612 4.93161 9.43185C4.75587 9.60759 4.75587 9.89251 4.93161 10.0682L7.18161 12.3183C7.35735 12.494 7.64227 12.494 7.81801 12.3183L10.068 10.0682Z" fill="#868E96"/>
</svg>
