<svg width="16" height="16" viewBox="0 0 16 16" fill="none" xmlns="http://www.w3.org/2000/svg">
<path fill-rule="evenodd" clip-rule="evenodd" d="M7.00075 2.20483C9.64861 2.2051 11.7951 4.35201 11.7952 6.99991C11.7952 8.15772 11.3841 9.21945 10.7009 10.048L13.66 13.0071L13.6913 13.042C13.8392 13.2233 13.829 13.4908 13.66 13.6598C13.491 13.8288 13.2235 13.839 13.0422 13.691L13.0074 13.6598L10.0482 10.7006C9.21979 11.3837 8.15837 11.7943 7.00075 11.7944C4.35268 11.7944 2.20519 9.64795 2.20508 6.99991C2.20516 4.35184 4.35267 2.20483 7.00075 2.20483ZM7.00075 3.12791C4.86247 3.12791 3.12884 4.86164 3.12876 6.99991C3.12886 9.13815 4.86248 10.8713 7.00075 10.8713C9.13879 10.871 10.872 9.13798 10.8721 6.99991C10.8721 4.86181 9.1388 3.12818 7.00075 3.12791Z" fill="#45495E"/>
</svg>
