<svg width="26" height="26" viewBox="0 0 26 26" fill="none" xmlns="http://www.w3.org/2000/svg">
<path fill-rule="evenodd" clip-rule="evenodd" d="M11.376 3.58301C15.6787 3.58345 19.1668 7.0722 19.167 11.375C19.1669 13.2564 18.4989 14.9818 17.3887 16.3281L22.1973 21.1367L22.248 21.1934C22.4885 21.4879 22.4719 21.9226 22.1973 22.1973C21.9226 22.4719 21.4879 22.4885 21.1934 22.248L21.1367 22.1973L16.3281 17.3887C14.9819 18.4987 13.2571 19.1658 11.376 19.166C7.07287 19.166 3.58318 15.6781 3.58301 11.375C3.58318 7.07193 7.07286 3.58301 11.376 3.58301ZM11.376 5.08301C7.90129 5.08301 5.08416 7.90036 5.08398 11.375C5.08416 14.8496 7.90129 17.666 11.376 17.666C14.8503 17.6656 17.6668 14.8494 17.667 11.375C17.6668 7.90063 14.8503 5.08345 11.376 5.08301Z" fill="#0071E3"/>
</svg>
