<svg width="21" height="21" viewBox="0 0 21 21" fill="none" xmlns="http://www.w3.org/2000/svg">
<path d="M5.55033 8.02429C5.89201 7.68284 6.44603 7.68268 6.78763 8.02429C7.12914 8.36589 7.12906 8.91992 6.78763 9.26159L4.31302 11.7371C2.94623 13.1039 2.9463 15.3203 4.31302 16.6871C5.67987 18.0538 7.89632 18.0539 9.2631 16.6871L11.7377 14.2117C12.0794 13.8702 12.6334 13.8701 12.975 14.2117C13.3165 14.5533 13.3164 15.1073 12.975 15.449L10.5004 17.9244C8.45021 19.9746 5.12599 19.9745 3.07572 17.9244C1.02558 15.8742 1.0255 12.55 3.07572 10.4997L5.55033 8.02429ZM13.4484 6.32128C13.7921 6.04129 14.2988 6.06086 14.6191 6.3811C14.9392 6.70134 14.9589 7.20811 14.6789 7.55175L14.6191 7.6184L7.61906 14.6184C7.27737 14.9601 6.72346 14.96 6.38175 14.6184C6.04004 14.2767 6.04004 13.7228 6.38175 13.3811L13.3818 6.3811L13.4484 6.32128ZM10.5004 3.07507C12.5506 1.02518 15.8749 1.02503 17.9251 3.07507C19.9751 5.12522 19.9749 8.44953 17.9251 10.4997L15.4496 12.9744C15.108 13.3159 14.554 13.3159 14.2123 12.9744C13.8706 12.6327 13.8706 12.0787 14.2123 11.7371L16.6878 9.26244C18.0542 7.89564 18.0543 5.67911 16.6878 4.31237C15.321 2.94576 13.1045 2.9459 11.7377 4.31237L9.26224 6.78698C8.92059 7.12854 8.36659 7.12853 8.02494 6.78698C7.68323 6.44527 7.68319 5.89133 8.02494 5.54968L10.5004 3.07507Z" fill="#45495E"/>
</svg>
